<svg width="161" height="170" viewBox="0 0 520 549" fill="none" xmlns="http://www.w3.org/2000/svg">
<mask id="mask0_1653_250" style="mask-type:alpha" maskUnits="userSpaceOnUse" x="33" y="0" width="487" height="487">
<rect x="33" width="487" height="487" fill="url(#paint0_linear_1653_250)"/>
</mask>
<g mask="url(#mask0_1653_250)">
<mask id="mask1_1653_250" style="mask-type:alpha" maskUnits="userSpaceOnUse" x="38" y="12" width="475" height="475">
<rect x="38" y="12" width="474.042" height="474.042" fill="#D9D9D9"/>
</mask>
<g mask="url(#mask1_1653_250)">
<g filter="url(#filter0_i_1653_250)">
<path fill-rule="evenodd" clip-rule="evenodd" d="M211.205 281.295C212.511 279.676 215.905 276.436 219.039 276.436C218.852 265.818 222.06 244.041 236.385 241.882H269.398H271.636V241.882H273.834H306.268C320.341 244.042 323.493 265.818 323.31 276.436C326.388 276.436 329.723 279.676 331.006 281.295L332.105 282.915L331.006 293.174L325.509 305.591L308.467 320.169L287.577 326.648L275.483 330.427L279.331 732.661L271.636 734.281L271.635 734.281L263.802 732.661L267.719 330.427L255.409 326.648L234.146 320.169L216.8 305.591L211.205 293.173L210.086 282.915L211.205 281.295Z" fill="#3153EA"/>
</g>
<g filter="url(#filter1_i_1653_250)">
<path d="M131 314.152L145.649 308.535C155.415 322.913 154.194 371.44 152.363 393.906C155.415 404.203 160.908 429.74 158.467 449.51C156.025 469.28 152.567 475.346 151.142 475.908C149.189 468.269 149.922 462.241 150.532 460.181C155.415 437.154 144.428 404.016 141.987 395.591C140.034 388.851 140.359 380.801 140.766 377.618C141.254 346.615 134.459 322.389 131 314.152Z" fill="#3153EA"/>
</g>
<path d="M258.869 731.289C263.661 733.014 267.764 733.446 269.216 733.446L269.216 329.534C265.731 326.946 260.14 325.22 257.78 324.681C220.311 319.504 212.033 293.403 212.577 281L143.957 309.042C145.591 310.12 149.185 316.052 150.492 331.152C151.799 346.251 151.4 376.63 151.037 389.932C158.444 424.877 157.754 449.431 156.483 457.341L151.127 476.432L151.037 476.754L146.68 675.205C146.499 685.631 145.809 708.532 144.502 716.729C143.195 724.925 147.225 727.334 149.403 727.514L235.451 729.671C241.26 729.491 254.076 729.563 258.869 731.289Z" fill="#3153EA"/>
<g filter="url(#filter2_i_1653_250)">
<path d="M411.137 315.152L396.488 309.535C386.722 323.913 387.942 372.44 389.774 394.906C386.722 405.203 381.228 430.74 383.67 450.51C386.111 470.28 389.57 476.346 390.994 476.908C392.947 469.269 392.215 463.241 391.605 461.181C386.722 438.154 397.708 405.016 400.15 396.591C402.103 389.851 401.778 381.801 401.371 378.618C400.882 347.615 407.678 323.389 411.137 315.152Z" fill="#3153EA"/>
</g>
<path d="M284.258 732.826C279.507 734.553 275.44 734.985 274 734.985L274 330.592C277.456 328 282.999 326.273 285.338 325.733C322.484 320.55 330.691 294.418 330.151 282L398.18 310.075C396.56 311.155 392.997 317.094 391.701 332.212C390.405 347.329 390.801 377.744 391.161 391.062C383.818 426.048 384.502 450.632 385.762 458.551L391.071 477.665L391.161 477.988L395.48 676.675C395.66 687.113 396.344 710.042 397.64 718.248C398.936 726.455 394.94 728.867 392.781 729.047L307.475 731.206C301.716 731.026 289.01 731.098 284.258 732.826Z" fill="#3153EA"/>
<rect x="270.555" y="286.154" width="2.15965" height="448.126" fill="white" fill-opacity="0.38"/>
<path d="M221.975 258.619C219.393 265.998 226.843 283.239 266.235 291.014L266.237 325.029" stroke="url(#paint1_linear_1653_250)"/>
<path d="M320.231 259.159C322.751 266.538 315.48 283.779 277.034 291.554L277.033 325.569" stroke="url(#paint2_linear_1653_250)"/>
<g filter="url(#filter3_i_1653_250)">
<path fill-rule="evenodd" clip-rule="evenodd" d="M277.951 286.687C288.654 284.5 314.321 278.055 318.918 262.084C319.656 259.714 319.029 253.226 310.614 246.228C308.786 244.708 306.407 244.041 298.435 244.041H277.951H271.307V244.041H265.317H244.834C236.863 244.041 234.484 244.708 232.656 246.228C224.241 253.226 223.614 259.715 224.352 262.084C228.949 278.056 254.614 284.5 265.317 286.687C266.334 286.855 268.846 287.176 271.307 287.227V287.234C271.414 287.234 271.52 287.233 271.627 287.232C271.738 287.233 271.849 287.234 271.96 287.234V287.227C274.422 287.176 276.934 286.855 277.951 286.687Z" fill="url(#paint3_linear_1653_250)"/>
</g>
<path d="M269.853 285.34H270.103H273.169H273.419V285.59V287.245C273.62 287.062 273.801 286.894 273.958 286.74C274.22 286.484 274.406 286.279 274.51 286.125L269.853 285.34ZM269.853 285.34V285.59V287.245M269.853 285.34V287.245M269.853 287.245C269.652 287.062 269.471 286.894 269.314 286.74C269.051 286.484 268.866 286.279 268.762 286.125C268.705 286.041 268.676 285.98 268.66 285.938L269.853 287.245ZM274.517 285.747L274.517 285.747C273.298 284.665 272.409 284.244 271.636 284.244C270.863 284.244 269.974 284.665 268.755 285.747C268.687 285.808 268.662 285.842 268.653 285.858C268.649 285.864 268.648 285.867 268.648 285.868L268.648 285.868L268.648 285.868L274.517 285.747ZM274.517 285.747C274.585 285.808 274.61 285.842 274.619 285.858C274.623 285.865 274.624 285.867 274.624 285.868L274.624 285.868C274.624 285.868 274.625 285.871 274.625 285.878C274.625 285.878 274.625 285.878 274.625 285.878M274.517 285.747L274.625 285.878M268.732 297.294C268.737 297.35 268.792 297.519 268.939 297.715C269.093 297.921 269.329 298.153 269.614 298.365C270.185 298.787 270.949 299.112 271.636 299.112C272.323 299.112 273.087 298.787 273.657 298.365C273.943 298.153 274.179 297.921 274.333 297.715M268.732 297.294L268.978 297.34L268.987 297.29M268.732 297.294L269.956 290.773C269.999 290.932 270.055 291.086 270.124 291.232M268.732 297.294L268.981 297.273C268.981 297.269 268.981 297.269 268.982 297.273C268.983 297.276 268.985 297.282 268.987 297.29M268.987 297.29C268.992 297.304 268.999 297.324 269.011 297.351C269.036 297.407 269.077 297.482 269.139 297.565L269.139 297.565C269.276 297.748 269.494 297.964 269.763 298.164L269.763 298.164C270.305 298.565 271.018 298.862 271.636 298.862C272.254 298.862 272.966 298.565 273.509 298.164L273.509 298.164C273.778 297.964 273.996 297.748 274.133 297.565M268.987 297.29L270.124 291.232M274.133 297.565C274.133 297.565 274.133 297.565 274.133 297.565L274.333 297.715M274.133 297.565L274.333 297.715M274.133 297.565C274.195 297.482 274.236 297.407 274.261 297.351C274.273 297.324 274.28 297.304 274.285 297.29M274.333 297.715C274.48 297.519 274.535 297.35 274.54 297.294M274.54 297.294L274.294 297.34L274.285 297.29M274.54 297.294L273.326 290.825C273.28 290.971 273.221 291.112 273.15 291.245M274.54 297.294L274.29 297.273C274.291 297.269 274.291 297.269 274.29 297.273C274.289 297.276 274.287 297.282 274.285 297.29M274.285 297.29L273.15 291.245M273.15 291.245L273.068 290.809C272.838 291.478 272.277 292.05 271.636 292.069C270.917 292.054 270.421 291.473 270.213 290.762L270.124 291.232M273.15 291.245C273.099 291.341 273.043 291.432 272.981 291.519C272.668 291.957 272.195 292.303 271.644 292.319L271.63 292.32L271.631 292.319C271.046 292.307 270.594 291.981 270.298 291.54C270.233 291.443 270.175 291.34 270.124 291.232M274.625 285.878C274.625 285.879 274.626 285.897 274.611 285.938C274.596 285.98 274.567 286.041 274.51 286.125L274.625 285.878ZM268.647 285.878C268.647 285.878 268.647 285.878 268.647 285.878L268.647 285.878ZM271.484 290.902C271.423 290.842 271.345 290.717 271.304 290.467V286.685H271.967V290.467C271.927 290.717 271.849 290.842 271.788 290.902C271.728 290.962 271.67 290.974 271.636 290.974C271.602 290.974 271.544 290.962 271.484 290.902ZM273.578 296.717C273.578 296.296 273.322 295.946 272.971 295.712C272.618 295.478 272.146 295.34 271.636 295.34C271.126 295.34 270.654 295.478 270.301 295.712C269.95 295.946 269.694 296.296 269.694 296.717C269.694 297.138 269.95 297.488 270.301 297.722C270.654 297.957 271.126 298.094 271.636 298.094C272.146 298.094 272.618 297.957 272.971 297.722C273.322 297.488 273.578 297.138 273.578 296.717Z" fill="#3153EA" stroke="#E4E4E4" stroke-width="0.5"/>
<g filter="url(#filter4_d_1653_250)">
<path d="M291.611 490.241L293.771 428.151C330.917 426.423 359.64 430.851 369.898 434.09C366.443 446.184 366.299 479.262 366.119 493.48L291.611 490.241Z" fill="#FBAC1E"/>
<g filter="url(#filter5_d_1653_250)">
<path d="M293.771 428.692L292.691 400.616C343.227 400.616 368.099 404.216 374.218 406.015C374.218 418.109 371.518 429.771 369.899 434.091C343.119 427.18 307.809 427.612 293.771 428.692Z" fill="#FBAC1E"/>
</g>
<g filter="url(#filter6_ii_1653_250)">
<path d="M296.406 425.418L295.391 402.776C342.914 402.776 366.304 405.679 372.058 407.13C372.058 416.884 369.519 426.289 367.996 429.772C342.813 424.199 309.607 424.547 296.406 425.418Z" fill="#FBAC1E"/>
</g>
</g>
<g filter="url(#filter7_d_1653_250)">
<path d="M250.578 490.241L248.418 428.151C211.273 426.423 182.549 430.851 172.291 434.09C175.746 446.184 175.89 479.262 176.07 493.48L250.578 490.241Z" fill="#FBAC1E"/>
<g filter="url(#filter8_d_1653_250)">
<path d="M248.418 428.692L249.498 400.616C198.962 400.616 174.09 404.216 167.971 406.015C167.971 418.109 170.671 429.771 172.291 434.091C199.07 427.18 234.381 427.612 248.418 428.692Z" fill="#FBAC1E"/>
</g>
<g filter="url(#filter9_ii_1653_250)">
<path d="M245.783 425.418L246.799 402.776C199.275 402.776 175.886 405.679 170.131 407.13C170.131 416.884 172.67 426.289 174.193 429.772C199.377 424.199 232.582 424.547 245.783 425.418Z" fill="#FBAC1E"/>
</g>
</g>
<path d="M327.739 367.965C325.972 364.417 327.695 361.567 329.695 359.83C325.784 361.491 325.197 366.392 325.675 368.456L326.977 372.005L329.778 374.44L331.722 375.1L331.892 375.138L332.024 375.176L332.401 375.251C332.458 373.345 332.269 372.401 330.325 370.759C328.77 369.445 327.953 368.349 327.739 367.965Z" fill="white"/>
<path d="M323.511 366.494C322.877 358.249 329.174 355.571 332.402 355.263C332.156 358.887 330.904 358.585 328.608 360.793C326.785 362.546 326.204 363.908 326.022 365.418C325.202 372.224 330.256 374.83 332.402 375.252C326.12 374.376 323.832 369.344 323.511 366.494Z" fill="white"/>
<path d="M338.632 367.965C340.399 364.417 338.677 361.567 336.676 359.83C340.587 361.491 341.174 366.392 340.696 368.456L339.394 372.005L336.593 374.44L334.649 375.1L334.479 375.138L334.347 375.176L333.97 375.251C333.913 373.345 334.102 372.401 336.046 370.759C337.601 369.445 338.418 368.349 338.632 367.965Z" fill="white"/>
<path d="M342.86 366.494C343.494 358.249 337.197 355.571 333.969 355.263C334.215 358.887 335.467 358.585 337.763 360.793C339.586 362.546 340.167 363.908 340.349 365.418C341.17 372.224 336.115 374.83 333.969 375.252C340.251 374.376 342.539 369.344 342.86 366.494Z" fill="white"/>
<path d="M312.18 382.9C312.18 382.488 312.272 382.12 312.456 381.796C312.644 381.468 312.898 381.214 313.218 381.034C313.542 380.85 313.904 380.758 314.304 380.758C314.772 380.758 315.182 380.878 315.534 381.118C315.886 381.358 316.132 381.69 316.272 382.114H315.306C315.21 381.914 315.074 381.764 314.898 381.664C314.726 381.564 314.526 381.514 314.298 381.514C314.054 381.514 313.836 381.572 313.644 381.688C313.456 381.8 313.308 381.96 313.2 382.168C313.096 382.376 313.044 382.62 313.044 382.9C313.044 383.176 313.096 383.42 313.2 383.632C313.308 383.84 313.456 384.002 313.644 384.118C313.836 384.23 314.054 384.286 314.298 384.286C314.526 384.286 314.726 384.236 314.898 384.136C315.074 384.032 315.21 383.88 315.306 383.68H316.272C316.132 384.108 315.886 384.442 315.534 384.682C315.186 384.918 314.776 385.036 314.304 385.036C313.904 385.036 313.542 384.946 313.218 384.766C312.898 384.582 312.644 384.328 312.456 384.004C312.272 383.68 312.18 383.312 312.18 382.9ZM318.219 381.49V382.54H319.629V383.206H318.219V384.316H319.809V385H317.379V380.806H319.809V381.49H318.219ZM321.803 384.334H323.183V385H320.963V380.812H321.803V384.334ZM326.051 385.042C325.659 385.042 325.299 384.95 324.971 384.766C324.643 384.582 324.383 384.328 324.191 384.004C323.999 383.676 323.903 383.306 323.903 382.894C323.903 382.486 323.999 382.12 324.191 381.796C324.383 381.468 324.643 381.212 324.971 381.028C325.299 380.844 325.659 380.752 326.051 380.752C326.447 380.752 326.807 380.844 327.131 381.028C327.459 381.212 327.717 381.468 327.905 381.796C328.097 382.12 328.193 382.486 328.193 382.894C328.193 383.306 328.097 383.676 327.905 384.004C327.717 384.328 327.459 384.582 327.131 384.766C326.803 384.95 326.443 385.042 326.051 385.042ZM326.051 384.292C326.303 384.292 326.525 384.236 326.717 384.124C326.909 384.008 327.059 383.844 327.167 383.632C327.275 383.42 327.329 383.174 327.329 382.894C327.329 382.614 327.275 382.37 327.167 382.162C327.059 381.95 326.909 381.788 326.717 381.676C326.525 381.564 326.303 381.508 326.051 381.508C325.799 381.508 325.575 381.564 325.379 381.676C325.187 381.788 325.037 381.95 324.929 382.162C324.821 382.37 324.767 382.614 324.767 382.894C324.767 383.174 324.821 383.42 324.929 383.632C325.037 383.844 325.187 384.008 325.379 384.124C325.575 384.236 325.799 384.292 326.051 384.292ZM330.823 382.9C330.823 382.488 330.915 382.12 331.099 381.796C331.287 381.468 331.541 381.214 331.861 381.034C332.185 380.85 332.547 380.758 332.947 380.758C333.415 380.758 333.825 380.878 334.177 381.118C334.529 381.358 334.775 381.69 334.915 382.114H333.949C333.853 381.914 333.717 381.764 333.541 381.664C333.369 381.564 333.169 381.514 332.941 381.514C332.697 381.514 332.479 381.572 332.287 381.688C332.099 381.8 331.951 381.96 331.843 382.168C331.739 382.376 331.687 382.62 331.687 382.9C331.687 383.176 331.739 383.42 331.843 383.632C331.951 383.84 332.099 384.002 332.287 384.118C332.479 384.23 332.697 384.286 332.941 384.286C333.169 384.286 333.369 384.236 333.541 384.136C333.717 384.032 333.853 383.88 333.949 383.68H334.915C334.775 384.108 334.529 384.442 334.177 384.682C333.829 384.918 333.419 385.036 332.947 385.036C332.547 385.036 332.185 384.946 331.861 384.766C331.541 384.582 331.287 384.328 331.099 384.004C330.915 383.68 330.823 383.312 330.823 382.9ZM336.863 380.812V385H336.023V380.812H336.863ZM340.933 380.812V381.49H339.817V385H338.977V381.49H337.861V380.812H340.933ZM342.776 381.49V382.54H344.186V383.206H342.776V384.316H344.366V385H341.936V380.806H344.366V381.49H342.776ZM345.315 382.9C345.315 382.488 345.407 382.12 345.591 381.796C345.779 381.468 346.033 381.214 346.353 381.034C346.677 380.85 347.039 380.758 347.439 380.758C347.907 380.758 348.317 380.878 348.669 381.118C349.021 381.358 349.267 381.69 349.407 382.114H348.441C348.345 381.914 348.209 381.764 348.033 381.664C347.861 381.564 347.661 381.514 347.433 381.514C347.189 381.514 346.971 381.572 346.779 381.688C346.591 381.8 346.443 381.96 346.335 382.168C346.231 382.376 346.179 382.62 346.179 382.9C346.179 383.176 346.231 383.42 346.335 383.632C346.443 383.84 346.591 384.002 346.779 384.118C346.971 384.23 347.189 384.286 347.433 384.286C347.661 384.286 347.861 384.236 348.033 384.136C348.209 384.032 348.345 383.88 348.441 383.68H349.407C349.267 384.108 349.021 384.442 348.669 384.682C348.321 384.918 347.911 385.036 347.439 385.036C347.039 385.036 346.677 384.946 346.353 384.766C346.033 384.582 345.779 384.328 345.591 384.004C345.407 383.68 345.315 383.312 345.315 382.9ZM353.988 380.812V385H353.148V383.218H351.354V385H350.514V380.812H351.354V382.534H353.148V380.812H353.988Z" fill="white"/>
<path d="M313.224 387.68C313.287 387.69 313.345 387.715 313.397 387.757C313.45 387.799 313.492 387.85 313.522 387.912C313.553 387.974 313.569 388.04 313.569 388.11C313.569 388.198 313.547 388.278 313.502 388.35C313.457 388.42 313.391 388.475 313.304 388.517C313.219 388.557 313.118 388.577 313.002 388.577H312.352V386.835H312.977C313.095 386.835 313.196 386.855 313.279 386.895C313.362 386.933 313.425 386.985 313.467 387.052C313.508 387.119 313.529 387.194 313.529 387.277C313.529 387.38 313.501 387.466 313.444 387.535C313.389 387.601 313.316 387.65 313.224 387.68ZM312.579 387.587H312.962C313.068 387.587 313.151 387.562 313.209 387.512C313.267 387.462 313.297 387.393 313.297 387.305C313.297 387.216 313.267 387.147 313.209 387.097C313.151 387.047 313.067 387.022 312.957 387.022H312.579V387.587ZM312.982 388.39C313.095 388.39 313.183 388.363 313.247 388.31C313.31 388.256 313.342 388.182 313.342 388.087C313.342 387.99 313.308 387.915 313.242 387.86C313.175 387.803 313.086 387.775 312.974 387.775H312.579V388.39H312.982ZM314.657 386.835V387.937C314.657 388.092 314.695 388.207 314.77 388.282C314.846 388.357 314.952 388.395 315.087 388.395C315.221 388.395 315.325 388.357 315.4 388.282C315.476 388.207 315.515 388.092 315.515 387.937V386.835H315.742V387.935C315.742 388.08 315.713 388.202 315.655 388.302C315.596 388.4 315.517 388.474 315.417 388.522C315.319 388.57 315.208 388.595 315.085 388.595C314.961 388.595 314.85 388.57 314.75 388.522C314.651 388.474 314.573 388.4 314.515 388.302C314.458 388.202 314.43 388.08 314.43 387.935V386.835H314.657ZM316.899 386.835V388.577H316.672V386.835H316.899ZM318.065 388.392H318.675V388.577H317.837V386.835H318.065V388.392ZM320.009 386.835C320.199 386.835 320.363 386.87 320.501 386.942C320.641 387.012 320.748 387.113 320.821 387.245C320.896 387.376 320.934 387.531 320.934 387.71C320.934 387.888 320.896 388.043 320.821 388.175C320.748 388.305 320.641 388.405 320.501 388.475C320.363 388.543 320.199 388.577 320.009 388.577H319.466V386.835H320.009ZM320.009 388.39C320.234 388.39 320.405 388.33 320.524 388.212C320.642 388.092 320.701 387.925 320.701 387.71C320.701 387.493 320.641 387.324 320.521 387.202C320.403 387.08 320.232 387.02 320.009 387.02H319.694V388.39H320.009ZM324.03 388.19H323.27L323.13 388.577H322.89L323.52 386.845H323.783L324.41 388.577H324.17L324.03 388.19ZM323.965 388.005L323.65 387.125L323.335 388.005H323.965ZM327.324 387.68C327.387 387.69 327.445 387.715 327.496 387.757C327.55 387.799 327.591 387.85 327.621 387.912C327.653 387.974 327.669 388.04 327.669 388.11C327.669 388.198 327.646 388.278 327.601 388.35C327.556 388.42 327.49 388.475 327.404 388.517C327.319 388.557 327.218 388.577 327.101 388.577H326.451V386.835H327.076C327.195 386.835 327.295 386.855 327.379 386.895C327.462 386.933 327.525 386.985 327.566 387.052C327.608 387.119 327.629 387.194 327.629 387.277C327.629 387.38 327.6 387.466 327.544 387.535C327.489 387.601 327.415 387.65 327.324 387.68ZM326.679 387.587H327.061C327.168 387.587 327.25 387.562 327.309 387.512C327.367 387.462 327.396 387.393 327.396 387.305C327.396 387.216 327.367 387.147 327.309 387.097C327.25 387.047 327.166 387.022 327.056 387.022H326.679V387.587ZM327.081 388.39C327.195 388.39 327.283 388.363 327.346 388.31C327.41 388.256 327.441 388.182 327.441 388.087C327.441 387.99 327.408 387.915 327.341 387.86C327.275 387.803 327.185 387.775 327.074 387.775H326.679V388.39H327.081ZM328.762 387.02V387.602H329.397V387.79H328.762V388.39H329.472V388.577H328.534V386.832H329.472V387.02H328.762ZM331.439 386.835V387.02H330.964V388.577H330.736V387.02H330.259V386.835H331.439ZM333.341 386.835V387.02H332.866V388.577H332.639V387.02H332.161V386.835H333.341ZM334.399 387.02V387.602H335.034V387.79H334.399V388.39H335.109V388.577H334.171V386.832H335.109V387.02H334.399ZM336.921 388.577L336.506 387.865H336.231V388.577H336.003V386.835H336.566C336.697 386.835 336.808 386.857 336.898 386.902C336.99 386.947 337.058 387.008 337.103 387.085C337.148 387.161 337.171 387.249 337.171 387.347C337.171 387.467 337.136 387.573 337.066 387.665C336.997 387.756 336.894 387.817 336.756 387.847L337.193 388.577H336.921ZM336.231 387.682H336.566C336.689 387.682 336.781 387.652 336.843 387.592C336.905 387.53 336.936 387.449 336.936 387.347C336.936 387.244 336.905 387.164 336.843 387.107C336.783 387.05 336.691 387.022 336.566 387.022H336.231V387.682ZM340.661 388.577H340.433L339.518 387.19V388.577H339.291V386.832H339.518L340.433 388.217V386.832H340.661V388.577ZM341.826 387.02V387.602H342.461V387.79H341.826V388.39H342.536V388.577H341.598V386.832H342.536V387.02H341.826ZM344.503 386.835V387.02H344.028V388.577H343.8V387.02H343.323V386.835H344.503ZM347.523 386.835L347.018 388.577H346.763L346.358 387.175L345.938 388.577L345.685 388.58L345.198 386.835H345.44L345.82 388.312L346.24 386.835H346.495L346.895 388.307L347.278 386.835H347.523ZM349.112 388.595C348.95 388.595 348.802 388.557 348.669 388.482C348.536 388.405 348.43 388.3 348.352 388.165C348.275 388.028 348.237 387.875 348.237 387.705C348.237 387.535 348.275 387.382 348.352 387.247C348.43 387.11 348.536 387.005 348.669 386.93C348.802 386.853 348.95 386.815 349.112 386.815C349.275 386.815 349.423 386.853 349.557 386.93C349.69 387.005 349.795 387.11 349.872 387.245C349.948 387.38 349.987 387.533 349.987 387.705C349.987 387.876 349.948 388.03 349.872 388.165C349.795 388.3 349.69 388.405 349.557 388.482C349.423 388.557 349.275 388.595 349.112 388.595ZM349.112 388.397C349.233 388.397 349.342 388.369 349.439 388.312C349.537 388.255 349.614 388.175 349.669 388.07C349.726 387.965 349.754 387.843 349.754 387.705C349.754 387.565 349.726 387.443 349.669 387.34C349.614 387.235 349.538 387.154 349.442 387.097C349.345 387.04 349.235 387.012 349.112 387.012C348.988 387.012 348.878 387.04 348.782 387.097C348.685 387.154 348.608 387.235 348.552 387.34C348.497 387.443 348.469 387.565 348.469 387.705C348.469 387.843 348.497 387.965 348.552 388.07C348.608 388.175 348.685 388.255 348.782 388.312C348.88 388.369 348.99 388.397 349.112 388.397ZM351.754 388.577L351.339 387.865H351.064V388.577H350.837V386.835H351.399C351.531 386.835 351.642 386.857 351.732 386.902C351.824 386.947 351.892 387.008 351.937 387.085C351.982 387.161 352.004 387.249 352.004 387.347C352.004 387.467 351.969 387.573 351.899 387.665C351.831 387.756 351.728 387.817 351.589 387.847L352.027 388.577H351.754ZM351.064 387.682H351.399C351.523 387.682 351.615 387.652 351.677 387.592C351.739 387.53 351.769 387.449 351.769 387.347C351.769 387.244 351.739 387.164 351.677 387.107C351.617 387.05 351.524 387.022 351.399 387.022H351.064V387.682ZM353.853 388.577L353.135 387.782V388.577H352.908V386.835H353.135V387.642L353.855 386.835H354.143L353.353 387.707L354.15 388.577H353.853Z" fill="white"/>
<path d="M193.778 382.322V383.565H191.732V390H190.192V383.565H188.146V382.322H193.778ZM196.442 383.565V385.49H199.027V386.711H196.442V388.746H199.357V390H194.902V382.311H199.357V383.565H196.442ZM205.09 390L202.296 386.579V390H200.756V382.322H202.296V385.765L205.09 382.322H206.949L203.781 386.128L207.037 390H205.09ZM214.617 390H213.077L209.59 384.731V390H208.05V382.311H209.59L213.077 387.591V382.311H214.617V390ZM217.679 382.322V390H216.139V382.322H217.679ZM221.851 390.077C221.316 390.077 220.832 389.985 220.399 389.802C219.974 389.619 219.637 389.355 219.387 389.01C219.138 388.665 219.01 388.258 219.002 387.789H220.652C220.674 388.104 220.784 388.354 220.982 388.537C221.188 388.72 221.466 388.812 221.818 388.812C222.178 388.812 222.46 388.728 222.665 388.559C222.871 388.383 222.973 388.156 222.973 387.877C222.973 387.65 222.904 387.463 222.764 387.316C222.625 387.169 222.449 387.056 222.236 386.975C222.031 386.887 221.745 386.792 221.378 386.689C220.88 386.542 220.473 386.399 220.157 386.26C219.849 386.113 219.582 385.897 219.354 385.611C219.134 385.318 219.024 384.929 219.024 384.445C219.024 383.99 219.138 383.594 219.365 383.257C219.593 382.92 219.912 382.663 220.322 382.487C220.733 382.304 221.202 382.212 221.73 382.212C222.522 382.212 223.164 382.406 223.655 382.795C224.154 383.176 224.429 383.712 224.48 384.401H222.786C222.772 384.137 222.658 383.921 222.445 383.752C222.24 383.576 221.965 383.488 221.62 383.488C221.32 383.488 221.078 383.565 220.894 383.719C220.718 383.873 220.63 384.097 220.63 384.39C220.63 384.595 220.696 384.768 220.828 384.907C220.968 385.039 221.136 385.149 221.334 385.237C221.54 385.318 221.826 385.413 222.192 385.523C222.691 385.67 223.098 385.816 223.413 385.963C223.729 386.11 224 386.33 224.227 386.623C224.455 386.916 224.568 387.301 224.568 387.778C224.568 388.189 224.462 388.57 224.249 388.922C224.037 389.274 223.725 389.556 223.314 389.769C222.904 389.974 222.416 390.077 221.851 390.077ZM227.444 382.322V390H225.904V382.322H227.444Z" fill="white"/>
<rect x="174.701" y="379.269" width="69.6885" height="13.5377" rx="1.75" stroke="white" stroke-width="0.5"/>
<g filter="url(#filter10_i_1653_250)">
<path d="M232.533 263.546V234.464H310.943V263.546C310.943 268.126 308.105 272.227 303.819 273.84L275.614 284.461C273.116 285.401 270.36 285.401 267.862 284.461L239.657 273.84C235.371 272.227 232.533 268.126 232.533 263.546Z" fill="#EAEFF3"/>
</g>
<path d="M203.108 82.8888C186.626 102.461 183.364 129.1 183.794 139.973C209.89 121.088 252.752 117.225 270.922 117.654V42.1143H263.475C260.713 42.1143 258.475 44.3528 258.475 47.1143V51.1276C243.71 52.1577 230.863 59.2825 226.284 62.7161L224.547 61.0941C221.889 58.6134 217.774 58.5804 215.077 61.0184L202.791 72.1224C199.896 74.7395 199.7 79.219 202.356 82.0789L203.108 82.8888Z" fill="#FFC61B"/>
<path d="M204.396 203.926C212.637 225.558 227.572 238.126 234.44 242.983C248.518 252.941 265.057 257.576 271.351 258.864V145.554H187.656L189.802 155.855C183.278 156.541 180.79 164.153 180.361 167.872C179.645 173.738 179.846 187.702 186.37 196.629C192.893 205.557 201.106 205.213 204.396 203.926Z" fill="#EAEFF3"/>
<path d="M179.928 145.553H271.349V117.654C220.703 118.513 198.384 132.247 188.513 136.969C180.615 140.746 179.499 144.265 179.928 145.553Z" fill="#E6AC00"/>
<path d="M338.963 82.8888C355.519 102.461 358.796 129.1 358.364 139.973C332.15 121.088 289.094 117.225 270.842 117.654V42.1143H278.346C281.107 42.1143 283.346 44.3528 283.346 47.1143V51.1276C298.177 52.1577 311.083 59.2825 315.682 62.7161L317.46 61.0639C320.115 58.5973 324.213 58.5645 326.907 60.9883L339.27 72.1128C342.181 74.7316 342.378 79.2285 339.707 82.0914L338.963 82.8888Z" fill="#FFC61B"/>
<path d="M337.796 203.926C329.555 225.558 314.62 238.126 307.753 242.983C293.674 252.941 277.136 257.576 270.842 258.864V145.554H354.535L352.389 155.855C358.913 156.541 361.402 164.153 361.831 167.872C362.546 173.738 362.346 187.702 355.822 196.629C349.298 205.557 341.086 205.213 337.796 203.926Z" fill="#EAEFF3"/>
<path d="M362.263 145.553H270.844V117.654C321.489 118.513 343.807 132.247 353.679 136.969C361.576 140.746 362.692 144.265 362.263 145.553Z" fill="#E6AC00"/>
</g>
</g>
<mask id="mask2_1653_250" style="mask-type:alpha" maskUnits="userSpaceOnUse" x="0" y="224" width="520" height="325">
<rect y="224" width="520" height="325" fill="url(#paint4_linear_1653_250)"/>
</mask>
<g mask="url(#mask2_1653_250)">
<path d="M57.1394 459.458L56.7193 394.101C54.6245 393.176 52.611 392.072 50.679 390.79C48.7443 389.506 46.9236 388.01 45.2168 386.303C38.0614 379.148 34.4608 370.638 34.4147 360.774C34.3635 350.91 37.8805 342.436 44.9657 335.351C47.6958 332.621 50.7393 330.399 54.0962 328.686C57.4506 326.97 60.988 325.827 64.7086 325.258L64.8564 355.241L75.9292 355.394L75.8789 325.313C79.7359 325.92 83.3515 327.096 86.7255 328.843C90.0969 330.592 93.1283 332.812 95.8198 335.503C102.975 342.659 106.578 351.168 106.63 361.032C106.676 370.896 103.156 379.371 96.0709 386.456C94.3809 388.146 92.5436 389.655 90.5591 390.983C88.5721 392.314 86.5028 393.398 84.3513 394.237L84.7714 459.594L57.1394 459.458Z" fill="#3355EA"/>
<path d="M432.333 469C429.889 464.121 428.056 458.145 426.833 451.07C425.611 443.996 425 436.8 425 429.482C425 417.407 426.344 407.435 429.033 399.565C431.722 391.7 435.267 385.573 439.667 381.182V344.591L461.667 308H465.333V345.689C464.111 346.298 463.194 347.152 462.583 348.25C461.972 349.348 461.667 350.567 461.667 351.909C461.667 353.983 462.371 355.722 463.779 357.127C465.182 358.527 466.922 359.227 469 359.227C471.078 359.227 472.821 358.527 474.229 357.127C475.632 355.722 476.333 353.983 476.333 351.909C476.333 350.567 476.028 349.348 475.417 348.25C474.806 347.152 473.889 346.298 472.667 345.689V308H476.333L498.333 344.591V381.182C502.856 385.573 506.429 391.7 509.055 399.565C511.685 407.435 513 417.407 513 429.482C513 436.8 512.389 443.996 511.167 451.07C509.944 458.145 508.111 464.121 505.667 469C500.533 467.414 496.439 464.516 493.383 460.306C490.328 456.1 488.861 451.314 488.983 445.948C488.983 442.898 489.321 439.605 489.995 436.068C490.665 432.531 491 428.994 491 425.457C491 418.383 489.076 410.942 485.229 403.136C481.376 395.33 475.967 388.012 469 381.182C462.156 388.012 456.778 395.33 452.867 403.136C448.956 410.942 447 418.383 447 425.457C447 428.994 447.367 432.531 448.1 436.068C448.833 439.605 449.261 442.898 449.383 445.948C449.383 451.314 447.826 456.132 444.712 460.401C441.593 464.67 437.467 467.536 432.333 469Z" fill="#3355EA"/>
</g>
<defs>
<filter id="filter0_i_1653_250" x="210.086" y="239.882" width="122.02" height="494.399" filterUnits="userSpaceOnUse" color-interpolation-filters="sRGB">
<feFlood flood-opacity="0" result="BackgroundImageFix"/>
<feBlend mode="normal" in="SourceGraphic" in2="BackgroundImageFix" result="shape"/>
<feColorMatrix in="SourceAlpha" type="matrix" values="0 0 0 0 0 0 0 0 0 0 0 0 0 0 0 0 0 0 127 0" result="hardAlpha"/>
<feOffset dy="-2"/>
<feGaussianBlur stdDeviation="1"/>
<feComposite in2="hardAlpha" operator="arithmetic" k2="-1" k3="1"/>
<feColorMatrix type="matrix" values="0 0 0 0 0 0 0 0 0 0 0 0 0 0 0 0 0 0 0.25 0"/>
<feBlend mode="normal" in2="shape" result="effect1_innerShadow_1653_250"/>
</filter>
<filter id="filter1_i_1653_250" x="129" y="308.535" width="30.0762" height="167.372" filterUnits="userSpaceOnUse" color-interpolation-filters="sRGB">
<feFlood flood-opacity="0" result="BackgroundImageFix"/>
<feBlend mode="normal" in="SourceGraphic" in2="BackgroundImageFix" result="shape"/>
<feColorMatrix in="SourceAlpha" type="matrix" values="0 0 0 0 0 0 0 0 0 0 0 0 0 0 0 0 0 0 127 0" result="hardAlpha"/>
<feOffset dx="-3"/>
<feGaussianBlur stdDeviation="1"/>
<feComposite in2="hardAlpha" operator="arithmetic" k2="-1" k3="1"/>
<feColorMatrix type="matrix" values="0 0 0 0 0 0 0 0 0 0 0 0 0 0 0 0 0 0 0.25 0"/>
<feBlend mode="normal" in2="shape" result="effect1_innerShadow_1653_250"/>
</filter>
<filter id="filter2_i_1653_250" x="383.061" y="309.535" width="30.0762" height="167.372" filterUnits="userSpaceOnUse" color-interpolation-filters="sRGB">
<feFlood flood-opacity="0" result="BackgroundImageFix"/>
<feBlend mode="normal" in="SourceGraphic" in2="BackgroundImageFix" result="shape"/>
<feColorMatrix in="SourceAlpha" type="matrix" values="0 0 0 0 0 0 0 0 0 0 0 0 0 0 0 0 0 0 127 0" result="hardAlpha"/>
<feOffset dx="3"/>
<feGaussianBlur stdDeviation="1"/>
<feComposite in2="hardAlpha" operator="arithmetic" k2="-1" k3="1"/>
<feColorMatrix type="matrix" values="0 0 0 0 0 0 0 0 0 0 0 0 0 0 0 0 0 0 0.25 0"/>
<feBlend mode="normal" in2="shape" result="effect1_innerShadow_1653_250"/>
</filter>
<filter id="filter3_i_1653_250" x="224.123" y="244.041" width="95.0234" height="46.1934" filterUnits="userSpaceOnUse" color-interpolation-filters="sRGB">
<feFlood flood-opacity="0" result="BackgroundImageFix"/>
<feBlend mode="normal" in="SourceGraphic" in2="BackgroundImageFix" result="shape"/>
<feColorMatrix in="SourceAlpha" type="matrix" values="0 0 0 0 0 0 0 0 0 0 0 0 0 0 0 0 0 0 127 0" result="hardAlpha"/>
<feOffset dy="3"/>
<feGaussianBlur stdDeviation="1.5"/>
<feComposite in2="hardAlpha" operator="arithmetic" k2="-1" k3="1"/>
<feColorMatrix type="matrix" values="0 0 0 0 0 0 0 0 0 0 0 0 0 0 0 0 0 0 0.37 0"/>
<feBlend mode="normal" in2="shape" result="effect1_innerShadow_1653_250"/>
</filter>
<filter id="filter4_d_1653_250" x="290.611" y="400.616" width="84.6074" height="95.8643" filterUnits="userSpaceOnUse" color-interpolation-filters="sRGB">
<feFlood flood-opacity="0" result="BackgroundImageFix"/>
<feColorMatrix in="SourceAlpha" type="matrix" values="0 0 0 0 0 0 0 0 0 0 0 0 0 0 0 0 0 0 127 0" result="hardAlpha"/>
<feOffset dy="2"/>
<feGaussianBlur stdDeviation="0.5"/>
<feComposite in2="hardAlpha" operator="out"/>
<feColorMatrix type="matrix" values="0 0 0 0 0 0 0 0 0 0 0 0 0 0 0 0 0 0 0.25 0"/>
<feBlend mode="normal" in2="BackgroundImageFix" result="effect1_dropShadow_1653_250"/>
<feBlend mode="normal" in="SourceGraphic" in2="effect1_dropShadow_1653_250" result="shape"/>
</filter>
<filter id="filter5_d_1653_250" x="290.691" y="400.616" width="85.5273" height="37.4746" filterUnits="userSpaceOnUse" color-interpolation-filters="sRGB">
<feFlood flood-opacity="0" result="BackgroundImageFix"/>
<feColorMatrix in="SourceAlpha" type="matrix" values="0 0 0 0 0 0 0 0 0 0 0 0 0 0 0 0 0 0 127 0" result="hardAlpha"/>
<feOffset dy="2"/>
<feGaussianBlur stdDeviation="1"/>
<feComposite in2="hardAlpha" operator="out"/>
<feColorMatrix type="matrix" values="0 0 0 0 0 0 0 0 0 0 0 0 0 0 0 0 0 0 0.25 0"/>
<feBlend mode="normal" in2="BackgroundImageFix" result="effect1_dropShadow_1653_250"/>
<feBlend mode="normal" in="SourceGraphic" in2="effect1_dropShadow_1653_250" result="shape"/>
</filter>
<filter id="filter6_ii_1653_250" x="295.391" y="401.776" width="76.668" height="29.9951" filterUnits="userSpaceOnUse" color-interpolation-filters="sRGB">
<feFlood flood-opacity="0" result="BackgroundImageFix"/>
<feBlend mode="normal" in="SourceGraphic" in2="BackgroundImageFix" result="shape"/>
<feColorMatrix in="SourceAlpha" type="matrix" values="0 0 0 0 0 0 0 0 0 0 0 0 0 0 0 0 0 0 127 0" result="hardAlpha"/>
<feOffset dy="2"/>
<feGaussianBlur stdDeviation="1"/>
<feComposite in2="hardAlpha" operator="arithmetic" k2="-1" k3="1"/>
<feColorMatrix type="matrix" values="0 0 0 0 0 0 0 0 0 0 0 0 0 0 0 0 0 0 0.18 0"/>
<feBlend mode="normal" in2="shape" result="effect1_innerShadow_1653_250"/>
<feColorMatrix in="SourceAlpha" type="matrix" values="0 0 0 0 0 0 0 0 0 0 0 0 0 0 0 0 0 0 127 0" result="hardAlpha"/>
<feOffset dy="-1"/>
<feGaussianBlur stdDeviation="0.5"/>
<feComposite in2="hardAlpha" operator="arithmetic" k2="-1" k3="1"/>
<feColorMatrix type="matrix" values="0 0 0 0 0 0 0 0 0 0 0 0 0 0 0 0 0 0 0.25 0"/>
<feBlend mode="normal" in2="effect1_innerShadow_1653_250" result="effect2_innerShadow_1653_250"/>
</filter>
<filter id="filter7_d_1653_250" x="166.971" y="400.616" width="84.6074" height="95.8643" filterUnits="userSpaceOnUse" color-interpolation-filters="sRGB">
<feFlood flood-opacity="0" result="BackgroundImageFix"/>
<feColorMatrix in="SourceAlpha" type="matrix" values="0 0 0 0 0 0 0 0 0 0 0 0 0 0 0 0 0 0 127 0" result="hardAlpha"/>
<feOffset dy="2"/>
<feGaussianBlur stdDeviation="0.5"/>
<feComposite in2="hardAlpha" operator="out"/>
<feColorMatrix type="matrix" values="0 0 0 0 0 0 0 0 0 0 0 0 0 0 0 0 0 0 0.25 0"/>
<feBlend mode="normal" in2="BackgroundImageFix" result="effect1_dropShadow_1653_250"/>
<feBlend mode="normal" in="SourceGraphic" in2="effect1_dropShadow_1653_250" result="shape"/>
</filter>
<filter id="filter8_d_1653_250" x="165.971" y="400.616" width="85.5273" height="37.4746" filterUnits="userSpaceOnUse" color-interpolation-filters="sRGB">
<feFlood flood-opacity="0" result="BackgroundImageFix"/>
<feColorMatrix in="SourceAlpha" type="matrix" values="0 0 0 0 0 0 0 0 0 0 0 0 0 0 0 0 0 0 127 0" result="hardAlpha"/>
<feOffset dy="2"/>
<feGaussianBlur stdDeviation="1"/>
<feComposite in2="hardAlpha" operator="out"/>
<feColorMatrix type="matrix" values="0 0 0 0 0 0 0 0 0 0 0 0 0 0 0 0 0 0 0.25 0"/>
<feBlend mode="normal" in2="BackgroundImageFix" result="effect1_dropShadow_1653_250"/>
<feBlend mode="normal" in="SourceGraphic" in2="effect1_dropShadow_1653_250" result="shape"/>
</filter>
<filter id="filter9_ii_1653_250" x="170.131" y="401.776" width="76.668" height="29.9951" filterUnits="userSpaceOnUse" color-interpolation-filters="sRGB">
<feFlood flood-opacity="0" result="BackgroundImageFix"/>
<feBlend mode="normal" in="SourceGraphic" in2="BackgroundImageFix" result="shape"/>
<feColorMatrix in="SourceAlpha" type="matrix" values="0 0 0 0 0 0 0 0 0 0 0 0 0 0 0 0 0 0 127 0" result="hardAlpha"/>
<feOffset dy="2"/>
<feGaussianBlur stdDeviation="1"/>
<feComposite in2="hardAlpha" operator="arithmetic" k2="-1" k3="1"/>
<feColorMatrix type="matrix" values="0 0 0 0 0 0 0 0 0 0 0 0 0 0 0 0 0 0 0.18 0"/>
<feBlend mode="normal" in2="shape" result="effect1_innerShadow_1653_250"/>
<feColorMatrix in="SourceAlpha" type="matrix" values="0 0 0 0 0 0 0 0 0 0 0 0 0 0 0 0 0 0 127 0" result="hardAlpha"/>
<feOffset dy="-1"/>
<feGaussianBlur stdDeviation="0.5"/>
<feComposite in2="hardAlpha" operator="arithmetic" k2="-1" k3="1"/>
<feColorMatrix type="matrix" values="0 0 0 0 0 0 0 0 0 0 0 0 0 0 0 0 0 0 0.25 0"/>
<feBlend mode="normal" in2="effect1_innerShadow_1653_250" result="effect2_innerShadow_1653_250"/>
</filter>
<filter id="filter10_i_1653_250" x="232.533" y="228.464" width="78.4102" height="56.7021" filterUnits="userSpaceOnUse" color-interpolation-filters="sRGB">
<feFlood flood-opacity="0" result="BackgroundImageFix"/>
<feBlend mode="normal" in="SourceGraphic" in2="BackgroundImageFix" result="shape"/>
<feColorMatrix in="SourceAlpha" type="matrix" values="0 0 0 0 0 0 0 0 0 0 0 0 0 0 0 0 0 0 127 0" result="hardAlpha"/>
<feOffset dy="-6"/>
<feGaussianBlur stdDeviation="3.5"/>
<feComposite in2="hardAlpha" operator="arithmetic" k2="-1" k3="1"/>
<feColorMatrix type="matrix" values="0 0 0 0 0 0 0 0 0 0 0 0 0 0 0 0 0 0 0.76 0"/>
<feBlend mode="normal" in2="shape" result="effect1_innerShadow_1653_250"/>
</filter>
<linearGradient id="paint0_linear_1653_250" x1="276.5" y1="0" x2="276.5" y2="487" gradientUnits="userSpaceOnUse">
<stop offset="0.565625" stop-color="#D9D9D9"/>
<stop offset="1" stop-color="#D9D9D9" stop-opacity="0"/>
</linearGradient>
<linearGradient id="paint1_linear_1653_250" x1="291.685" y1="329.348" x2="222.431" y2="265.035" gradientUnits="userSpaceOnUse">
<stop stop-color="#F3F3F3"/>
<stop offset="1" stop-color="#464646" stop-opacity="0"/>
</linearGradient>
<linearGradient id="paint2_linear_1653_250" x1="252.197" y1="336.366" x2="321.304" y2="267.251" gradientUnits="userSpaceOnUse">
<stop stop-color="#9C2D2D"/>
<stop offset="1" stop-color="#464646" stop-opacity="0"/>
</linearGradient>
<linearGradient id="paint3_linear_1653_250" x1="269.475" y1="244.041" x2="271.635" y2="373.08" gradientUnits="userSpaceOnUse">
<stop stop-color="#152335"/>
<stop offset="1"/>
</linearGradient>
<linearGradient id="paint4_linear_1653_250" x1="260" y1="224" x2="260" y2="549" gradientUnits="userSpaceOnUse">
<stop stop-color="#D9D9D9"/>
<stop offset="1" stop-color="#D9D9D9" stop-opacity="0"/>
</linearGradient>
</defs>
</svg>
