<svg width="170" height="140" viewBox="0 0 504 414" fill="none" xmlns="http://www.w3.org/2000/svg">
<path fill-rule="evenodd" clip-rule="evenodd" d="M132.729 303.053L50.9838 251.232C58.3935 241.543 68.7242 247.294 75.3228 250.967C75.4839 251.057 75.6428 251.146 75.7994 251.232L159.735 303.053H132.729ZM171.571 303.055L101.347 256.737C112.093 250.619 116.845 253.369 122.354 256.557L122.665 256.737L194.77 303.055H171.571ZM60.4733 317.652L8.15338 283.335C-0.362013 277.75 -2.57473 266.23 3.26525 257.888C8.7487 250.054 19.3892 247.855 27.5286 252.873L110.105 303.785C96.9669 302.812 68.6479 304.223 60.4733 317.652ZM124.023 358.526H210.878L208.058 352.687L63.3928 352.687V335.274C63.3928 323.124 73.2426 313.274 85.3928 313.274L204.476 313.274C227.718 312.574 279.122 292.891 302.79 278.24C327.314 263.058 402.053 279.213 436.357 289.188L408.621 385.531C402.053 379.692 385.12 368.89 369.938 372.394C354.757 375.897 296.465 396.236 269.216 405.968C240.93 416.07 201.681 405.237 124.023 358.526ZM461.546 285.995C455.182 284.145 448.523 287.806 446.674 294.17L419.196 388.742C417.346 395.106 421.007 401.765 427.371 403.614L460.395 413.209C466.759 415.058 473.417 411.398 475.267 405.034L502.745 310.462C504.594 304.097 500.934 297.439 494.57 295.59L461.546 285.995Z" fill="url(#paint0_linear_1629_1346)"/>
<path d="M163.038 93.2993C156.003 93.2993 149.126 95.3967 143.277 99.3262C137.428 103.256 132.869 108.841 130.177 115.375C127.484 121.91 126.78 129.1 128.152 136.037C129.525 142.974 132.912 149.346 137.887 154.347C142.861 159.349 149.199 162.755 156.099 164.134C162.998 165.514 170.15 164.806 176.649 162.099C183.149 159.393 188.704 154.809 192.612 148.928C196.521 143.047 198.607 136.133 198.607 129.06C198.607 119.576 194.859 110.48 188.189 103.774C181.518 97.067 172.471 93.2993 163.038 93.2993ZM163.038 149.495C159.018 149.495 155.088 148.297 151.746 146.051C148.403 143.806 145.798 140.615 144.26 136.881C142.722 133.147 142.319 129.038 143.103 125.074C143.888 121.11 145.823 117.469 148.666 114.611C151.508 111.753 155.13 109.807 159.073 109.018C163.015 108.23 167.102 108.634 170.816 110.181C174.53 111.728 177.704 114.347 179.938 117.707C182.171 121.068 183.363 125.019 183.363 129.06C183.346 134.475 181.199 139.663 177.391 143.492C173.583 147.32 168.423 149.479 163.038 149.495ZM232.905 141.832L223.95 129.827V128.294L232.905 116.289C233.586 115.354 234.053 114.28 234.273 113.143C234.493 112.006 234.459 110.834 234.176 109.711C232.535 103.585 230.1 97.7021 226.935 92.2137C226.366 91.1991 225.571 90.3308 224.612 89.6771C223.653 89.0233 222.557 88.602 221.409 88.446L206.737 86.3387L205.53 85.1254L203.434 70.3739C203.279 69.2197 202.86 68.1173 202.21 67.1533C201.559 66.1894 200.696 65.3901 199.687 64.8182C194.228 61.6355 188.376 59.1879 182.283 57.5382C181.168 57.2343 179.999 57.1914 178.865 57.4128C177.73 57.6342 176.662 58.114 175.741 58.8154L163.864 67.7557H162.212L150.335 58.8154C149.405 58.1307 148.337 57.6611 147.206 57.4403C146.075 57.2195 144.909 57.2529 143.793 57.5382C137.699 59.1879 131.848 61.6355 126.389 64.8182C125.38 65.3901 124.516 66.1894 123.866 67.1533C123.216 68.1173 122.797 69.2197 122.642 70.3739L120.546 85.1254C120.112 85.4972 119.709 85.9029 119.339 86.3387L104.667 88.446C103.519 88.602 102.422 89.0233 101.464 89.6771C100.505 90.3308 99.7097 91.1991 99.1409 92.2137C95.9754 97.7021 93.5409 103.585 91.9001 109.711C91.5978 110.832 91.5551 112.008 91.7753 113.148C91.9955 114.288 92.4728 115.363 93.1704 116.289L102.126 128.294V129.827L93.1704 141.832C92.4894 142.767 92.0223 143.841 91.8027 144.978C91.5831 146.115 91.6163 147.287 91.9001 148.41C93.5409 154.536 95.9754 160.419 99.1409 165.907C99.7097 166.922 100.505 167.79 101.464 168.444C102.422 169.098 103.519 169.519 104.667 169.675L119.339 171.782L120.546 172.996L122.642 187.747C122.797 188.901 123.216 190.004 123.866 190.968C124.516 191.932 125.38 192.731 126.389 193.303C131.848 196.485 137.699 198.933 143.793 200.583C144.433 200.765 145.096 200.851 145.762 200.838C147.412 200.847 149.02 200.309 150.335 199.305L162.212 190.365H163.864L175.741 199.305C176.67 199.99 177.739 200.46 178.87 200.681C180.001 200.901 181.167 200.868 182.283 200.583C188.376 198.933 194.228 196.485 199.687 193.303C200.696 192.731 201.559 191.932 202.21 190.968C202.86 190.004 203.279 188.901 203.434 187.747L205.594 172.932L206.673 171.846L221.409 169.675C222.557 169.519 223.653 169.098 224.612 168.444C225.571 167.79 226.366 166.922 226.935 165.907C230.1 160.419 232.535 154.536 234.176 148.41C234.478 147.289 234.521 146.113 234.3 144.973C234.08 143.832 233.603 142.758 232.905 141.832ZM215.438 155.051L201.91 157.031C200.216 157.282 198.652 158.09 197.463 159.33C196.384 160.479 194.351 162.586 193.335 163.48C191.994 164.697 191.118 166.346 190.858 168.142L188.889 181.744C186.592 182.913 184.214 183.916 181.775 184.746L170.85 176.444C169.41 175.36 167.627 174.838 165.833 174.975H160.243C158.45 174.849 156.671 175.37 155.225 176.444L144.301 184.746C141.862 183.916 139.484 182.913 137.187 181.744L135.218 168.142C134.958 166.346 134.082 164.697 132.741 163.48C131.335 162.258 130.019 160.935 128.803 159.521C127.593 158.173 125.953 157.292 124.166 157.031L110.637 155.051C109.474 152.741 108.477 150.351 107.652 147.899L115.909 136.915C116.921 135.528 117.456 133.846 117.433 132.126C117.37 130.529 117.306 127.592 117.37 126.251C117.495 124.448 116.977 122.659 115.909 121.206L107.652 110.222C108.477 107.77 109.474 105.38 110.637 103.07L124.166 101.09C125.953 100.829 127.593 99.9476 128.803 98.5996C130.019 97.1859 131.335 95.8626 132.741 94.6404C134.082 93.4241 134.958 91.7753 135.218 89.9787L137.187 76.3767C139.484 75.2075 141.862 74.2045 144.301 73.3753L155.225 81.677C156.666 82.7612 158.449 83.2831 160.243 83.1457C162.085 83.0819 163.991 83.0819 165.833 83.1457C167.627 83.2831 169.41 82.7612 170.85 81.677L181.775 73.3753C184.214 74.2045 186.592 75.2075 188.889 76.3767L190.858 89.9787C191.118 91.7753 191.994 93.4241 193.335 94.6404C194.741 95.8626 196.057 97.1859 197.273 98.5996C198.483 99.9476 200.123 100.829 201.91 101.09L215.438 103.07C216.601 105.38 217.599 107.77 218.424 110.222L210.167 121.206C209.146 122.586 208.63 124.277 208.706 125.995C208.706 127.592 208.769 130.529 208.706 131.87C208.569 133.674 209.088 135.467 210.167 136.915L218.424 147.899C217.599 150.351 216.601 152.741 215.438 155.051Z" fill="#FBAC1E"/>
<path d="M269.951 178.223C264.646 178.223 259.461 179.796 255.05 182.743C250.64 185.69 247.203 189.879 245.173 194.779C243.143 199.68 242.612 205.073 243.647 210.276C244.681 215.479 247.236 220.258 250.986 224.009C254.737 227.76 259.516 230.314 264.718 231.349C269.921 232.384 275.313 231.853 280.214 229.823C285.114 227.793 289.303 224.355 292.25 219.944C295.197 215.534 296.77 210.348 296.77 205.043C296.77 197.93 293.944 191.108 288.915 186.078C283.885 181.048 277.063 178.223 269.951 178.223ZM269.951 220.37C266.919 220.37 263.956 219.471 261.436 217.787C258.916 216.103 256.952 213.709 255.792 210.908C254.632 208.108 254.328 205.026 254.92 202.053C255.511 199.08 256.971 196.35 259.114 194.206C261.257 192.063 263.988 190.603 266.961 190.012C269.934 189.42 273.015 189.724 275.815 190.884C278.616 192.044 281.009 194.008 282.693 196.529C284.377 199.049 285.276 202.012 285.276 205.043C285.263 209.104 283.645 212.995 280.773 215.867C277.902 218.738 274.011 220.357 269.951 220.37ZM322.631 214.622L315.879 205.618V204.469L322.631 195.465C323.145 194.764 323.497 193.958 323.663 193.105C323.828 192.252 323.803 191.373 323.589 190.531C322.352 185.937 320.516 181.525 318.13 177.408C317.701 176.647 317.101 175.996 316.378 175.506C315.655 175.016 314.829 174.7 313.963 174.583L302.9 173.002L301.99 172.092L300.41 161.028C300.293 160.163 299.977 159.336 299.486 158.613C298.996 157.89 298.345 157.291 297.584 156.862C293.468 154.475 289.056 152.639 284.462 151.402C283.621 151.174 282.739 151.142 281.884 151.308C281.029 151.474 280.223 151.834 279.529 152.36L270.573 159.065H269.328L260.372 152.36C259.671 151.846 258.866 151.494 258.013 151.328C257.16 151.163 256.281 151.188 255.439 151.402C250.845 152.639 246.433 154.475 242.317 156.862C241.556 157.291 240.905 157.89 240.415 158.613C239.924 159.336 239.608 160.163 239.491 161.028L237.911 172.092C237.584 172.371 237.28 172.675 237.001 173.002L225.938 174.583C225.072 174.7 224.246 175.016 223.523 175.506C222.8 175.996 222.2 176.647 221.772 177.408C219.385 181.525 217.549 185.937 216.312 190.531C216.084 191.372 216.052 192.254 216.218 193.109C216.384 193.964 216.744 194.77 217.27 195.465L224.022 204.469V205.618L217.27 214.622C216.756 215.323 216.404 216.129 216.238 216.982C216.073 217.834 216.098 218.713 216.312 219.555C217.549 224.15 219.385 228.562 221.772 232.678C222.2 233.439 222.8 234.091 223.523 234.581C224.246 235.071 225.072 235.387 225.938 235.504L237.001 237.085L237.911 237.995L239.491 249.058C239.608 249.924 239.924 250.751 240.415 251.474C240.905 252.197 241.556 252.796 242.317 253.225C246.433 255.612 250.845 257.448 255.439 258.685C255.922 258.822 256.422 258.886 256.924 258.877C258.169 258.884 259.381 258.48 260.372 257.727L269.328 251.022H270.573L279.529 257.727C280.23 258.241 281.035 258.593 281.888 258.758C282.741 258.924 283.62 258.899 284.462 258.685C289.056 257.448 293.468 255.612 297.584 253.225C298.345 252.796 298.996 252.197 299.486 251.474C299.977 250.751 300.293 249.924 300.41 249.058L302.038 237.947L302.852 237.133L313.963 235.504C314.829 235.387 315.655 235.071 316.378 234.581C317.101 234.091 317.701 233.439 318.13 232.678C320.516 228.562 322.352 224.15 323.589 219.555C323.817 218.715 323.849 217.833 323.683 216.978C323.517 216.122 323.157 215.317 322.631 214.622ZM309.461 224.536L299.26 226.021C297.983 226.21 296.804 226.816 295.908 227.745C295.094 228.607 293.561 230.188 292.795 230.858C291.784 231.771 291.123 233.007 290.927 234.355L289.442 244.556C287.71 245.433 285.918 246.185 284.079 246.807L275.841 240.581C274.755 239.768 273.411 239.376 272.058 239.479H267.843C266.491 239.385 265.15 239.776 264.06 240.581L255.822 246.807C253.983 246.185 252.191 245.433 250.459 244.556L248.974 234.355C248.778 233.007 248.117 231.771 247.106 230.858C246.046 229.942 245.054 228.949 244.137 227.889C243.225 226.878 241.988 226.217 240.641 226.021L230.44 224.536C229.563 222.804 228.811 221.011 228.189 219.172L234.415 210.934C235.178 209.894 235.582 208.633 235.564 207.342C235.516 206.145 235.469 203.942 235.516 202.936C235.611 201.584 235.22 200.242 234.415 199.152L228.189 190.915C228.811 189.075 229.563 187.283 230.44 185.55L240.641 184.066C241.988 183.869 243.225 183.209 244.137 182.198C245.054 181.137 246.046 180.145 247.106 179.228C248.117 178.316 248.778 177.08 248.974 175.732L250.459 165.531C252.191 164.654 253.983 163.901 255.822 163.28L264.06 169.506C265.146 170.319 266.49 170.71 267.843 170.607C269.232 170.559 270.669 170.559 272.058 170.607C273.411 170.71 274.755 170.319 275.841 169.506L284.079 163.28C285.918 163.901 287.71 164.654 289.442 165.531L290.927 175.732C291.123 177.08 291.784 178.316 292.795 179.228C293.855 180.145 294.847 181.137 295.764 182.198C296.676 183.209 297.913 183.869 299.26 184.066L309.461 185.55C310.338 187.283 311.09 189.075 311.712 190.915L305.486 199.152C304.717 200.187 304.327 201.456 304.385 202.744C304.385 203.942 304.432 206.145 304.385 207.151C304.282 208.504 304.673 209.848 305.486 210.934L311.712 219.172C311.09 221.011 310.338 222.804 309.461 224.536Z" fill="#FBAC1E"/>
<path d="M238.982 30.8323C235.532 32.1385 232.547 34.4386 230.404 37.4416C228.261 40.4446 227.056 44.0157 226.943 47.7032C226.829 51.3908 227.812 55.0293 229.766 58.1585C231.721 61.2877 234.559 63.7671 237.922 65.2833C241.285 66.7994 245.023 67.2841 248.661 66.6761C252.3 66.0681 255.677 64.3947 258.364 61.8675C261.052 59.3403 262.93 56.0728 263.761 52.4783C264.591 48.8837 264.337 45.1235 263.031 41.6731C261.279 37.0464 257.762 33.3049 253.251 31.2719C248.741 29.2388 243.608 29.0807 238.982 30.8323ZM249.361 58.2463C247.389 58.9927 245.241 59.1377 243.187 58.6629C241.133 58.1882 239.266 57.115 237.822 55.5791C236.378 54.0432 235.421 52.1136 235.074 50.0342C234.726 47.9548 235.003 45.8192 235.869 43.8972C236.736 41.9753 238.152 40.3534 239.94 39.2367C241.728 38.1199 243.807 37.5585 245.915 37.6234C248.022 37.6883 250.062 38.3767 251.778 39.6013C253.494 40.826 254.808 42.532 255.555 44.5036C256.547 47.1481 256.452 50.0775 255.292 52.6523C254.131 55.2271 251.999 57.2381 249.361 58.2463ZM282.211 41.535L275.602 37.3413L275.319 36.5937L277.493 29.0741C277.655 28.4919 277.686 27.8811 277.583 27.2856C277.481 26.6901 277.248 26.1246 276.902 25.6296C274.965 22.9457 272.685 20.5279 270.119 18.4383C269.653 18.049 269.102 17.773 268.511 17.6321C267.92 17.4913 267.305 17.4893 266.713 17.6264L259.128 19.3227L258.312 18.9549L254.56 12.1479C254.27 11.6136 253.861 11.1537 253.364 10.8042C252.867 10.4546 252.296 10.2251 251.696 10.1335C248.431 9.59451 245.109 9.48695 241.816 9.81358C241.213 9.87234 240.631 10.0686 240.116 10.3871C239.601 10.7057 239.165 11.1382 238.843 11.6514L234.669 18.2181L233.859 18.5247L226.383 16.3688C225.801 16.2073 225.19 16.1767 224.595 16.2789C223.999 16.3812 223.434 16.614 222.939 16.9605C220.255 18.8967 217.837 21.1771 215.748 23.7433C215.359 24.2097 215.083 24.76 214.942 25.3509C214.801 25.9419 214.799 26.5575 214.936 27.1494L216.633 34.7347C216.489 34.9966 216.366 35.2695 216.265 35.5507L209.458 39.3031C208.924 39.5923 208.464 40.0014 208.115 40.4984C207.765 40.9953 207.536 41.5665 207.444 42.1671C206.905 45.4323 206.798 48.7541 207.125 52.0473C207.183 52.6503 207.38 53.2318 207.698 53.7472C208.017 54.2625 208.449 54.698 208.962 55.0201L215.572 59.2138L215.855 59.9615L213.68 67.481C213.519 68.0632 213.488 68.674 213.59 69.2695C213.693 69.865 213.925 70.4306 214.272 70.9255C216.208 73.6094 218.489 76.0272 221.055 78.1168C221.521 78.5062 222.071 78.7821 222.662 78.923C223.253 79.0639 223.869 79.0658 224.461 78.9287L232.046 77.2324L232.862 77.6002L236.614 84.4072C236.903 84.9415 237.312 85.4014 237.809 85.751C238.306 86.1005 238.877 86.3301 239.478 86.4216C242.743 86.9606 246.065 87.0682 249.358 86.7415C249.705 86.7117 250.047 86.6305 250.371 86.5006C251.182 86.1986 251.871 85.6373 252.33 84.9038L256.504 78.337L257.314 78.0304L264.791 80.1863C265.373 80.3478 265.984 80.3785 266.579 80.2762C267.175 80.1739 267.74 79.9411 268.235 79.5946C270.919 77.6585 273.336 75.378 275.426 72.8118C275.815 72.3454 276.091 71.7952 276.232 71.2042C276.373 70.6132 276.375 69.9976 276.237 69.4057L274.56 61.7774L274.889 61.0474L281.715 57.2521C282.249 56.9628 282.709 56.5537 283.059 56.0567C283.408 55.5598 283.638 54.9886 283.729 54.388C284.268 51.1229 284.376 47.801 284.049 44.5078C283.99 43.9048 283.794 43.3233 283.475 42.808C283.157 42.2926 282.724 41.8571 282.211 41.535ZM276.086 51.2268L269.817 54.7046C269.032 55.1417 268.415 55.8264 268.061 56.6516C267.744 57.4128 267.136 58.8182 266.803 59.4431C266.37 60.2853 266.245 61.2524 266.449 62.1771L267.995 69.1782C267.085 70.1751 266.104 71.1058 265.061 71.9632L258.17 69.9419C257.263 69.6805 256.292 69.7569 255.437 70.1571L252.696 71.1949C251.794 71.4665 251.017 72.0508 250.507 72.8431L246.682 78.9214C245.333 78.9698 243.981 78.9219 242.639 78.7782L239.161 72.5083C238.702 71.6802 237.967 71.0385 237.085 70.6942C236.17 70.359 235.28 69.9579 234.423 69.4939C233.58 69.061 232.613 68.9358 231.689 69.1399L224.688 70.6863C223.691 69.7754 222.76 68.7947 221.903 67.7515L223.924 60.8602C224.164 59.9953 224.116 59.0758 223.787 58.2407C223.461 57.4737 222.887 56.0525 222.671 55.3865C222.399 54.4838 221.815 53.7074 221.022 53.1967L214.944 49.3717C214.896 48.0222 214.944 46.671 215.087 45.3283L221.357 41.8506C222.185 41.3911 222.826 40.6569 223.171 39.7747C223.506 38.8593 223.907 37.9694 224.371 37.1121C224.804 36.2698 224.929 35.3028 224.725 34.378L223.178 27.377C224.089 26.3801 225.07 25.4494 226.113 24.5919L233.004 26.6132C233.911 26.8747 234.881 26.7982 235.736 26.398C236.628 26.0249 237.562 25.671 238.477 25.3602C239.383 25.094 240.161 24.5084 240.667 23.712L244.492 17.6337C245.841 17.5853 247.192 17.6332 248.535 17.777L252.013 24.0468C252.472 24.8749 253.206 25.5166 254.088 25.8609C255.004 26.1961 255.894 26.5972 256.751 27.0612C257.593 27.4942 258.56 27.6194 259.485 27.4152L266.486 25.8689C267.483 26.7797 268.413 27.7604 269.271 28.8036L267.25 35.695C267.004 36.5576 267.063 37.4787 267.418 38.3026C267.713 39.0815 268.286 40.5027 268.503 41.1687C268.769 42.0741 269.355 42.8521 270.151 43.3584L276.229 47.1834C276.278 48.5329 276.23 49.8841 276.086 51.2268Z" fill="#FBAC1E"/>
<defs>
<linearGradient id="paint0_linear_1629_1346" x1="413.722" y1="391.545" x2="-15.699" y2="-11.9504" gradientUnits="userSpaceOnUse">
<stop stop-color="#3153EA"/>
<stop offset="1" stop-color="#3153EA" stop-opacity="0"/>
</linearGradient>
</defs>
</svg>
