<svg width="154" height="140" viewBox="0 0 474 430" fill="none" xmlns="http://www.w3.org/2000/svg">
<path d="M157.041 97.8406C157.041 71.8916 167.349 47.0055 185.698 28.6568C204.047 10.3082 228.933 2.78392e-06 254.882 0C280.831 -2.78392e-06 305.717 10.3082 324.065 28.6568C342.414 47.0055 352.722 71.8916 352.722 97.8405L318.322 97.8406C318.322 81.0151 311.638 64.8787 299.741 52.9813C287.843 41.0839 271.707 34.4 254.882 34.4C238.056 34.4 221.92 41.0839 210.022 52.9813C198.125 64.8787 191.441 81.0151 191.441 97.8406L157.041 97.8406Z" fill="#FBAC1E"/>
<path fill-rule="evenodd" clip-rule="evenodd" d="M376.034 125.885H135.006C128.935 125.885 124.014 130.806 124.014 136.876C124.014 137.369 124.047 137.861 124.113 138.349H18C8.05887 138.349 0 146.48 0 156.421C0 166.31 7.97401 174.408 17.8427 174.493H154.549C164.186 174.493 171.998 182.305 171.998 191.942C171.998 201.579 164.186 209.391 154.549 209.391H153.441L153.432 209.392H138.35L138.348 209.392L138.347 209.392H59.1304C49.1893 209.392 41.1304 217.523 41.1304 227.464C41.1304 237.353 49.1044 245.451 58.9731 245.536H135.23C145.211 245.536 153.303 253.628 153.303 263.609C153.303 273.59 145.211 281.681 135.23 281.681H134.755C134.706 281.682 134.658 281.682 134.609 281.682H127.754H126.81H79.0725C69.1313 281.682 61.0725 289.813 61.0725 299.754C61.0725 309.643 69.046 317.74 78.9143 317.826H115.288C115.341 317.826 115.394 317.826 115.447 317.827H115.913L115.941 317.838C125.62 318.181 133.361 326.136 133.361 335.899C133.361 341.32 130.973 346.184 127.192 349.497C126.107 350.894 124.17 352.136 122.201 353.399L122.2 353.399C119.726 354.986 117.199 356.606 116.241 358.61C115.946 359.227 115.904 359.924 115.886 360.608L114.37 417.682C114.191 424.432 119.614 430.001 126.366 430.001H385.792C392.583 430.001 398.021 424.37 397.785 417.583L392.526 266.621L309.93 349.313C305.168 354.08 299.612 356.464 293.263 356.464C286.914 356.464 281.358 354.08 276.596 349.313L214.691 287.335C210.326 282.965 208.143 277.403 208.143 270.649C208.143 263.895 210.326 258.333 214.691 253.963C219.056 249.593 224.611 247.408 231.358 247.408C238.104 247.408 243.659 249.593 248.024 253.963L293.263 299.254L390.279 202.125L388.026 137.467C387.801 131.006 382.499 125.885 376.034 125.885ZM48.6087 299.754C48.6087 309.643 40.6352 317.74 30.7669 317.826H19.0882C9.21991 317.74 1.24638 309.643 1.24638 299.754C1.24638 289.813 9.30525 281.682 19.2464 281.682H30.6087C40.5498 281.682 48.6087 289.813 48.6087 299.754Z" fill="url(#paint0_linear_1627_56)"/>
<mask id="mask0_1627_56" style="mask-type:alpha" maskUnits="userSpaceOnUse" x="208" y="152" width="266" height="205">
<path d="M293.261 299.255L433.739 158.614C438.104 154.244 443.659 152.059 450.405 152.059C457.151 152.059 462.707 154.244 467.072 158.614C471.437 162.984 473.62 168.546 473.62 175.3C473.62 182.054 471.437 187.616 467.072 191.986L309.928 349.313C305.166 354.081 299.611 356.464 293.261 356.464C286.912 356.464 281.356 354.081 276.595 349.313L214.689 287.336C210.324 282.966 208.142 277.404 208.142 270.65C208.142 263.896 210.324 258.334 214.689 253.964C219.054 249.593 224.61 247.408 231.356 247.408C238.102 247.408 243.658 249.593 248.023 253.964L293.261 299.255Z" fill="white"/>
</mask>
<g mask="url(#mask0_1627_56)">
<path d="M386.996 125.885H669.3V386.378H396.344L386.996 125.885Z" fill="#FBAC1E"/>
</g>
<defs>
<linearGradient id="paint0_linear_1627_56" x1="370.895" y1="258.001" x2="-43.0024" y2="343.421" gradientUnits="userSpaceOnUse">
<stop stop-color="#3153EA"/>
<stop offset="1" stop-color="#3153EA" stop-opacity="0"/>
</linearGradient>
</defs>
</svg>
