<svg width="134" height="140" viewBox="0 0 424 441" fill="none" xmlns="http://www.w3.org/2000/svg">
<path d="M64.6518 118.627L6.26392 62.9034C-23.3929 137.638 60.2393 188.055 90.4893 183.904C114.689 180.582 130.625 191.219 135.568 196.952L159.887 220.678L214.456 228.982C221.969 230.366 238.656 236.93 245.299 252.114C251.942 267.298 243.322 287.307 238.181 295.413L347.317 408.702C357.401 418.192 383.736 431.479 408.41 408.702C433.085 385.926 423.041 362.833 414.935 354.134L378.755 315.58C376.975 325.861 366.299 344.762 337.828 338.119C309.358 331.476 304.613 304.112 305.799 291.261C302.24 291.063 292.513 288.414 282.073 279.398C271.634 270.383 272.979 254.684 274.956 247.962C270.408 247.764 258.467 245.115 247.078 236.099C235.69 227.084 234.029 210.595 234.622 203.477C228.889 203.279 212.936 202.259 200.814 188.649C189.175 175.581 195.278 150.292 200.814 138.232L190.781 124.857C188.068 121.239 186.785 116.786 186.754 112.264C186.604 90.8745 180.78 52.1867 157.514 25.5358C131.416 -4.35829 83.3716 -1.9462 62.6119 2.9966C80.4059 20.1976 116.825 55.4298 120.146 58.7514C124.298 62.9034 133.848 74.3852 106.765 100.24C85.6722 120.376 69.3969 122.779 64.6518 118.627Z" fill="url(#paint0_linear_1615_70)"/>
<path fill-rule="evenodd" clip-rule="evenodd" d="M266.925 112.259C257.608 105.416 244.509 107.422 237.666 116.738L210.773 153.353C203.93 162.67 205.936 175.77 215.252 182.613C224.569 189.455 237.669 187.45 244.512 178.133L271.404 141.518C278.247 132.201 276.242 119.102 266.925 112.259ZM153.045 390.54L226.921 440.953C232.977 428.75 255.624 400.862 297.77 386.939L237.821 322.722C230.958 316.72 207.181 305.197 166.973 307.117L153.045 390.54ZM277.997 158.258C284.839 148.941 297.939 146.936 307.256 153.778C316.572 160.621 318.578 173.721 311.735 183.037L284.842 219.653C278 228.969 264.9 230.975 255.583 224.132C246.267 217.289 244.261 204.19 251.104 194.873L277.997 158.258ZM345.217 201.229C335.9 194.387 322.801 196.392 315.958 205.709L289.065 242.324C282.222 251.641 284.228 264.74 293.544 271.583C302.861 278.426 315.961 276.421 322.804 267.104L349.696 230.489C356.539 221.172 354.534 208.072 345.217 201.229ZM345.572 259.091C352.414 249.775 365.514 247.769 374.831 254.612C384.147 261.455 386.153 274.555 379.31 283.871L357.207 313.966C350.364 323.282 337.264 325.288 327.947 318.445C318.631 311.602 316.625 298.503 323.468 289.186L345.572 259.091ZM229.538 271.825C231.003 260.116 222.698 249.436 210.988 247.972L120.486 236.652C108.777 235.187 98.0972 243.492 96.6327 255.202C96.4406 256.738 96.0595 259.291 95.5672 262.589C92.3064 284.433 84.1661 338.966 93.7299 347.238L127.882 373.801C131.603 376.696 137.056 374.364 137.534 369.673L143.227 313.81C144.739 298.975 157.614 287.927 172.507 288.685L205.685 290.375C217.394 291.839 228.074 283.534 229.538 271.825Z" fill="url(#paint1_linear_1615_70)"/>
<path d="M213.777 157.28L239.003 175.808V175.808C234.223 182.316 225.071 183.717 218.563 178.937L216.907 177.721C210.398 172.94 208.997 163.789 213.777 157.28V157.28Z" fill="url(#paint2_linear_1615_70)"/>
<path d="M252.98 198.908L278.206 217.436V217.436C273.573 223.744 264.704 225.101 258.397 220.468L256.013 218.718C249.705 214.085 248.348 205.216 252.98 198.908V198.908Z" fill="url(#paint3_linear_1615_70)"/>
<path d="M207.515 286.057L207.615 254.758V254.758C215.441 254.783 221.766 261.148 221.74 268.974L221.731 271.931C221.706 279.758 215.341 286.082 207.515 286.057V286.057Z" fill="url(#paint4_linear_1615_70)"/>
<path d="M291.453 246.616L316.447 265.456V265.456C311.704 271.747 302.759 273.003 296.468 268.261L294.258 266.595C287.967 261.853 286.711 252.908 291.453 246.616V246.616Z" fill="url(#paint5_linear_1615_70)"/>
<path d="M327.587 294.938L350.062 311.878V311.878C345.511 317.916 336.927 319.121 330.889 314.57L330.279 314.11C324.241 309.559 323.036 300.975 327.587 294.938V294.938Z" fill="url(#paint6_linear_1615_70)"/>
<defs>
<linearGradient id="paint0_linear_1615_70" x1="212" y1="0" x2="404.863" y2="407.853" gradientUnits="userSpaceOnUse">
<stop offset="0.654167" stop-color="#FAAB1D"/>
<stop offset="1" stop-color="white" stop-opacity="0"/>
</linearGradient>
<linearGradient id="paint1_linear_1615_70" x1="330.877" y1="108.196" x2="330.877" y2="440.953" gradientUnits="userSpaceOnUse">
<stop offset="0.482292" stop-color="#3052E9"/>
<stop offset="1" stop-color="#3052E9" stop-opacity="0"/>
</linearGradient>
<linearGradient id="paint2_linear_1615_70" x1="226.39" y1="166.544" x2="217.735" y2="178.329" gradientUnits="userSpaceOnUse">
<stop offset="0.133333" stop-color="#EDEDED" stop-opacity="0"/>
<stop offset="1" stop-color="white"/>
</linearGradient>
<linearGradient id="paint3_linear_1615_70" x1="265.593" y1="208.172" x2="257.205" y2="219.593" gradientUnits="userSpaceOnUse">
<stop offset="0.133333" stop-color="#EDEDED" stop-opacity="0"/>
<stop offset="1" stop-color="white"/>
</linearGradient>
<linearGradient id="paint4_linear_1615_70" x1="207.565" y1="270.407" x2="221.736" y2="270.453" gradientUnits="userSpaceOnUse">
<stop offset="0.133333" stop-color="#EDEDED" stop-opacity="0"/>
<stop offset="1" stop-color="white"/>
</linearGradient>
<linearGradient id="paint5_linear_1615_70" x1="303.95" y1="256.036" x2="295.363" y2="267.428" gradientUnits="userSpaceOnUse">
<stop offset="0.133333" stop-color="#EDEDED" stop-opacity="0"/>
<stop offset="1" stop-color="white"/>
</linearGradient>
<linearGradient id="paint6_linear_1615_70" x1="338.824" y1="303.408" x2="330.584" y2="314.34" gradientUnits="userSpaceOnUse">
<stop offset="0.133333" stop-color="#EDEDED" stop-opacity="0"/>
<stop offset="1" stop-color="white"/>
</linearGradient>
</defs>
</svg>
